# xmcd
#
# Track frame offsets: 
#        150
#        18423
#        35978
#        58204
#        84188
#        104314
#        126428
#        141941
#        160861
#        182936
#        213798
#        236638
#
# Disc length: 3352 seconds
#
# Revision: 0
# Processed by: cddbd v1.5.2PL0 Copyright (c) Steve Scherf et al.
# Submitted via: ExactAudioCopyFreeDBPlugin 1.0
#
DISCID=aa0d160c
DTITLE=ELDORADO - Antigravity Sound Machine
DYEAR=2012
DGENRE=Rock
TTITLE0=Maybe Forever
TTITLE1=Mr. Saturn
TTITLE2=Like A Lost Child
TTITLE3=Another Bright Sunday
TTITLE4=Searching For Light
TTITLE5=A Farewell To November
TTITLE6=Background Radiation
TTITLE7=Space Mambo
TTITLE8=Kassandra
TTITLE9=Paranormal Circus
TTITLE10=Lady Of The Mountain
TTITLE11=Blue Jay Wings
EXTD=
EXTT0=
EXTT1=
EXTT2=
EXTT3=
EXTT4=
EXTT5=
EXTT6=
EXTT7=
EXTT8=
EXTT9=
EXTT10=
EXTT11=
PLAYORDER=
